TITLE "Mix 09 - Drug Addicted Hardcore"
PERFORMER "Samination"
FILE "samination_mix09-drug_addicted_hardcore.mp3" MP3
  TRACK 01 AUDIO
    TITLE "Extremely Dangerous"
    PERFORMER "Re-Form"
    INDEX 01 00:00:00
  TRACK 02 AUDIO
    TITLE "Champion Sounds (Storm & Spinback remix)"
    PERFORMER "Q-Project"
    INDEX 01 05:02:00
  TRACK 03 AUDIO
    TITLE "True Love Never Dies (Oxceranoid remix)"
    PERFORMER "Jobseekers"
    INDEX 01 09:13:15
  TRACK 04 AUDIO
    TITLE "Power (Triple J remix)"
    PERFORMER "Deep Wave"
    INDEX 01 12:26:40
  TRACK 05 AUDIO
    TITLE "Drug Addicted Psycho (Scott Brown remix)"
    PERFORMER "Gladheadz"
    INDEX 01 17:42:50
  TRACK 06 AUDIO
    TITLE "Easy Inside"
    PERFORMER "G.E.O.S."
    INDEX 01 21:38:50
  TRACK 07 AUDIO
    TITLE "Ultimate High (Breeze & Styles remix)"
    PERFORMER "DJ Stargazer"
    INDEX 01 26:37:30
  TRACK 08 AUDIO
    TITLE "Sure wont be the Last"
    PERFORMER "DJ Storm & DJ Phosphor"
    INDEX 01 30:56:15
  TRACK 09 AUDIO
    TITLE "Sub Dub (Storm remix)"
    PERFORMER "DJ Seduction"
    INDEX 01 36:07:00
  TRACK 10 AUDIO
    TITLE "Fallen Angel"
    PERFORMER "DJ Storm"
    INDEX 01 40:56:10
  TRACK 11 AUDIO
    TITLE "Drug Addicted Psycho (Frantic & AMS remix)"
    PERFORMER "Gladheadz"
    INDEX 01 45:12:30
  TRACK 12 AUDIO
    TITLE "Hardcore (Akuma Goof remix)"
    PERFORMER "DJ UFO"
    INDEX 01 50:16:00
  TRACK 13 AUDIO
    TITLE "Robby Roboter"
    PERFORMER "Woxxy"
    INDEX 01 55:47:20
 